<svg width="30" height="30" viewBox="0 0 30 30" fill="none" xmlns="http://www.w3.org/2000/svg">
<g clip-path="url(#clip0_2_5)">
<path d="M14.1563 9.53688L15 10.8626L15.8437 9.53688C16.9717 7.7643 18.9651 6.625 21.25 6.625C24.8227 6.625 27.75 9.55228 27.75 13.125C27.75 14.6991 27.0232 16.3669 25.7952 18.0414C24.5748 19.7056 22.9258 21.2857 21.2418 22.6635C19.5627 24.0373 17.8786 25.186 16.6116 25.9923C15.979 26.3948 15.4528 26.7105 15.0863 26.9247C15.0571 26.9417 15.029 26.9581 15.0019 26.9739C14.9745 26.9578 14.946 26.9411 14.9165 26.9237C14.5498 26.7079 14.0234 26.39 13.3907 25.9849C12.1233 25.1736 10.4388 24.019 8.75929 22.641C7.07479 21.2589 5.42521 19.6764 4.20437 18.0144C2.97534 16.3413 2.25 14.6819 2.25 13.125C2.25 9.55228 5.17728 6.625 8.75 6.625C11.0349 6.625 13.0283 7.7643 14.1563 9.53688Z" stroke="black" stroke-width="2"/>
</g>
<defs>
<clipPath id="clip0_2_5">
<rect width="30" height="30" fill="white"/>
</clipPath>
</defs>
</svg>
